<svg data-v-0dd9719b="" version="1.0" xmlns="http://www.w3.org/2000/svg" xmlns:xlink="http://www.w3.org/1999/xlink">
    <g fill="#1eadef" class="iconsvg-imagesvg icon_container" transform="translate(0,0)">
        <rect fill="#80cc28" fill-opacity="0" stroke-width="2" x="0" y="0" width="100" height="100" class="image-rect">
        </rect>
        <svg viewBox="0 0 60 60" x="0" y="0" width="100" height="100" class="image-svg-svg bn"
            style="overflow: visible;">
            <g hollow-target="">
                <g><svg fill="#000000" xmlns="http://www.w3.org/2000/svg" xmlns:xlink="http://www.w3.org/1999/xlink"
                        xml:space="preserve" version="1.1"
                        style="shape-rendering: geometricprecision; text-rendering: geometricprecision; overflow: visible;"
                        viewBox="0 0 333 333" x="0" y="0" fill-rule="evenodd" clip-rule="evenodd" width="60" height="60"
                        filtersec="colorsf1702606241" filter="url(#VpkmcLO3RFXT5c16jJ9n_)">
                        <g transform="scale(1, 1) skewX(0)">
                            <defs>
                                <filter id="VpkmcLO3RFXT5c16jJ9n_">
                                    <feColorMatrix type="matrix"
                                        values="0 0 0 0 0.1171875  0 0 0 0 0.67578125  0 0 0 0 0.93359375  0 0 0 1 0">
                                    </feColorMatrix>
                                </filter>
                            </defs>
                            <g>
                                <path class="fil0"
                                    d="M79 0l175 0c22,0 42,9 56,23l0 0 0 0c14,15 23,34 23,56l0 175c0,22 -9,42 -23,56l0 0 0 0c-14,14 -34,23 -56,23l-175 0c-22,0 -41,-9 -56,-23l0 0 0 0c-14,-14 -23,-34 -23,-56l0 -175c0,-22 9,-41 23,-56l0 0 0 0c15,-14 34,-23 56,-23zm175 16l-175 0c-17,0 -33,7 -44,19l0 0c-12,11 -19,27 -19,44l0 175c0,18 7,33 19,45l0 0c11,11 27,18 44,18l175 0c18,0 33,-7 45,-18l0 0c11,-12 18,-27 18,-45l0 -175c0,-17 -7,-33 -18,-44l0 0c-12,-12 -27,-19 -45,-19z">
                                </path>
                            </g>
                        </g>
                    </svg></g>
                <g filter="url(#colors4814491171)"><svg xmlns="http://www.w3.org/2000/svg"
                        xmlns:xlink="http://www.w3.org/1999/xlink" viewBox="0 0 37.512 53.42400000000001" width="45"
                        height="45" x="7.5" y="7.5" class="image-svg-letter">
                        <path transform="translate(-6.6240000000000006 51.40800000000001)"
                            d="M42.84-8.21L42.84-8.21Q42.41-6.34 40.79-3.46Q39.17-0.58 38.30-0.58L38.30-0.58Q34.56-4.75 25.99-13.32L25.99-13.32Q18.65-20.52 15.48-24.12L15.48-24.12Q15.34-21.17 15.23-16.99Q15.12-12.82 14.98-8.78L14.98-8.78Q14.90-4.39 14.83-2.70Q14.76-1.01 14.76-0.79L14.76-0.79Q14.76-0.79 12.24 0.22L12.24 0.22Q8.50 2.02 7.27 2.02L7.27 2.02Q6.77 2.02 6.70 1.73L6.70 1.73Q6.62 1.66 6.62 0.36L6.62 0.36Q6.62-1.22 7.06-15.48L7.06-15.48Q7.85-36.86 7.85-43.63L7.85-43.63Q7.85-49.61 7.42-49.39L7.42-49.39Q8.78-50.26 10.80-50.83Q12.82-51.41 14.33-51.41L14.33-51.41Q15.55-51.41 15.98-51.05L15.98-51.05Q16.13-50.76 16.13-48.89L16.13-48.89Q16.13-47.45 15.77-35.57L15.77-35.57Q15.48-29.38 15.48-28.15L15.48-28.15Q17.64-30.46 20.45-33.41Q23.26-36.36 25.99-39.17L25.99-39.17L34.92-48.46Q35.14-48.74 36.22-48.74L36.22-48.74Q38.16-48.74 40.64-47.92Q43.13-47.09 44.14-45.65L44.14-45.65Q42.55-43.78 33.19-35.42L33.19-35.42Q29.45-32.04 26.24-29.05Q23.04-26.06 22.90-25.56L22.90-25.56Q28.15-21.60 38.81-11.81L38.81-11.81L42.84-8.21ZM11.95-36.79L11.95-36.79Q11.95-37.15 11.66-38.05Q11.38-38.95 11.38-39.38L11.38-39.38L10.73-39.74L10.73-39.38L10.73-38.95L10.73-36.22Q11.16-36.07 11.23-36.07L11.23-36.07Q11.38-36.07 11.95-36.43L11.95-36.43L11.95-36.79ZM32.62-39.31L32.62-39.31Q32.62-39.38 32.72-39.46Q32.83-39.53 32.76-39.74L32.76-39.74L32.62-39.74L32.40-39.17L32.62-39.17L32.62-39.31ZM12.60-30.38L12.60-30.38Q12.17-30.38 12.02-30.20Q11.88-30.02 11.38-29.09L11.38-29.09Q11.66-29.23 11.88-29.23L11.88-29.23Q12.02-29.23 12.24-29.23Q12.46-29.23 12.53-29.30Q12.60-29.38 12.60-29.59L12.60-29.59L12.60-30.38ZM18.22-24.12L18.22-24.12Q18.43-24.19 18.50-24.30Q18.58-24.41 18.22-24.26L18.22-24.26L18.22-24.12ZM36.94-9.72L36.94-9.72Q36.94-9.94 37.01-10.01L37.01-10.01Q36.79-10.22 36.50-10.62Q36.22-11.02 36.07-11.23L36.07-11.23L35.50-11.23L35.28-10.94Q35.21-10.94 35.24-10.87Q35.28-10.80 35.28-10.58L35.28-10.58Q35.42-10.22 35.68-9.90Q35.93-9.58 36.07-9.29L36.07-9.29Q36.43-9.36 36.61-9.43Q36.79-9.50 36.94-9.72L36.94-9.72ZM38.95-6.48L38.95-6.48Q39.02-6.55 39.02-6.62Q39.02-6.70 38.95-6.91L38.95-6.91Q38.38-6.70 38.16-6.48Q37.94-6.26 37.73-5.62L37.73-5.62Q37.87-5.76 38.34-6.01Q38.81-6.26 38.95-6.48L38.95-6.48Z">
                        </path>
                    </svg></g>
            </g>
        </svg>
        <defs>
            <filter id="colors4814491171">
                <feColorMatrix type="matrix"
                    values="0 0 0 0 0.94140625  0 0 0 0 0.31640625  0 0 0 0 0.10546875  0 0 0 1 0"
                    class="icon-fecolormatrix"></feColorMatrix>
            </filter>
            <filter id="colorsf1702606241">
                <feColorMatrix type="matrix"
                    values="0 0 0 0 0.99609375  0 0 0 0 0.99609375  0 0 0 0 0.99609375  0 0 0 1 0"
                    class="icon-fecolormatrix"></feColorMatrix>
            </filter>
            <filter id="colorsb4309001260">
                <feColorMatrix type="matrix" values="0 0 0 0 0  0 0 0 0 0  0 0 0 0 0  0 0 0 1 0"
                    class="icon-fecolormatrix"></feColorMatrix>
            </filter>
        </defs>
    </g>
</svg>